<svg
        width="300"
        height="31"
        viewBox="0 0 347 36"
        fill="none"
        xmlns="http://www.w3.org/2000/svg"
      >
        <path
          d="M23.096 1.304V24.248C23.096 27.8 22.088 30.536 20.072 32.456C18.088 34.376 15.4 35.336 12.008 35.336C8.456 35.336 5.608 34.328 3.464 32.312C1.32 30.296 0.248 27.432 0.248 23.72H8.408C8.408 25.128 8.696 26.2 9.272 26.936C9.848 27.64 10.68 27.992 11.768 27.992C12.76 27.992 13.528 27.672 14.072 27.032C14.616 26.392 14.888 25.464 14.888 24.248V1.304H23.096ZM45.662 35.336C42.494 35.336 39.582 34.6 36.926 33.128C34.302 31.656 32.206 29.608 30.638 26.984C29.102 24.328 28.334 21.352 28.334 18.056C28.334 14.76 29.102 11.8 30.638 9.176C32.206 6.552 34.302 4.504 36.926 3.032C39.582 1.56 42.494 0.823999 45.662 0.823999C48.83 0.823999 51.726 1.56 54.35 3.032C57.006 4.504 59.086 6.552 60.59 9.176C62.126 11.8 62.894 14.76 62.894 18.056C62.894 21.352 62.126 24.328 60.59 26.984C59.054 29.608 56.974 31.656 54.35 33.128C51.726 34.6 48.83 35.336 45.662 35.336ZM45.662 27.848C48.35 27.848 50.494 26.952 52.094 25.16C53.726 23.368 54.542 21 54.542 18.056C54.542 15.08 53.726 12.712 52.094 10.952C50.494 9.16 48.35 8.264 45.662 8.264C42.942 8.264 40.766 9.144 39.134 10.904C37.534 12.664 36.734 15.048 36.734 18.056C36.734 21.032 37.534 23.416 39.134 25.208C40.766 26.968 42.942 27.848 45.662 27.848ZM97.6044 35H89.3964L75.6684 14.216V35H67.4604V1.304H75.6684L89.3964 22.184V1.304H97.6044V35ZM112.334 18.104C112.334 14.776 113.054 11.816 114.494 9.224C115.934 6.6 117.934 4.568 120.494 3.128C123.086 1.656 126.014 0.919998 129.278 0.919998C133.278 0.919998 136.702 1.976 139.55 4.088C142.398 6.2 144.302 9.08 145.262 12.728H136.238C135.566 11.32 134.606 10.248 133.358 9.512C132.142 8.776 130.75 8.408 129.182 8.408C126.654 8.408 124.606 9.288 123.038 11.048C121.47 12.808 120.686 15.16 120.686 18.104C120.686 21.048 121.47 23.4 123.038 25.16C124.606 26.92 126.654 27.8 129.182 27.8C130.75 27.8 132.142 27.432 133.358 26.696C134.606 25.96 135.566 24.888 136.238 23.48H145.262C144.302 27.128 142.398 30.008 139.55 32.12C136.702 34.2 133.278 35.24 129.278 35.24C126.014 35.24 123.086 34.52 120.494 33.08C117.934 31.608 115.934 29.576 114.494 26.984C113.054 24.392 112.334 21.432 112.334 18.104ZM166.225 35.336C163.057 35.336 160.145 34.6 157.489 33.128C154.865 31.656 152.769 29.608 151.201 26.984C149.664 24.328 148.896 21.352 148.896 18.056C148.896 14.76 149.664 11.8 151.201 9.176C152.769 6.552 154.865 4.504 157.489 3.032C160.145 1.56 163.057 0.823999 166.225 0.823999C169.393 0.823999 172.289 1.56 174.913 3.032C177.569 4.504 179.649 6.552 181.153 9.176C182.689 11.8 183.457 14.76 183.457 18.056C183.457 21.352 182.689 24.328 181.153 26.984C179.617 29.608 177.537 31.656 174.913 33.128C172.289 34.6 169.393 35.336 166.225 35.336ZM166.225 27.848C168.913 27.848 171.057 26.952 172.656 25.16C174.289 23.368 175.105 21 175.105 18.056C175.105 15.08 174.289 12.712 172.656 10.952C171.057 9.16 168.913 8.264 166.225 8.264C163.505 8.264 161.329 9.144 159.697 10.904C158.097 12.664 157.297 15.048 157.297 18.056C157.297 21.032 158.097 23.416 159.697 25.208C161.329 26.968 163.505 27.848 166.225 27.848ZM196.231 28.664H206.983V35H188.023V1.304H196.231V28.664ZM219.106 7.88V14.696H230.098V21.032H219.106V28.424H231.538V35H210.898V1.304H231.538V7.88H219.106ZM275.027 1.304V35H266.819V14.792L259.283 35H252.659L245.075 14.744V35H236.867V1.304H246.563L256.019 24.632L265.379 1.304H275.027ZM301.905 29.048H289.329L287.313 35H278.721L290.913 1.304H300.417L312.609 35H303.921L301.905 29.048ZM299.793 22.712L295.617 10.376L291.489 22.712H299.793ZM346.464 35H338.256L324.528 14.216V35H316.32V1.304H324.528L338.256 22.184V1.304H346.464V35Z"
          fill="#faf8f5"></path>
      </svg>